<?xml version="1.0" encoding="UTF-8"?>
<svg id="Layer_2" data-name="Layer 2" xmlns="http://www.w3.org/2000/svg" xmlns:xlink="http://www.w3.org/1999/xlink" viewBox="0 0 360.52 89.83">
  <defs>
    <style>
      .cls-1 {
        letter-spacing: .23em;
      }

      .cls-2 {
        letter-spacing: .23em;
      }

      .cls-3 {
        letter-spacing: .2em;
      }

      .cls-4 {
        letter-spacing: .22em;
      }

      .cls-5 {
        letter-spacing: .21em;
      }

      .cls-6 {
        letter-spacing: .22em;
      }

      .cls-7 {
        font-size: 12px;
      }

      .cls-7, .cls-8 {
        font-family: Montserrat-Medium, Montserrat;
        font-variation-settings: 'wght' 500;
        font-weight: 500;
      }

      .cls-9 {
        letter-spacing: -.04em;
      }

      .cls-10 {
        letter-spacing: .22em;
      }

      .cls-11 {
        letter-spacing: .23em;
      }

      .cls-12 {
        letter-spacing: .22em;
      }

      .cls-8 {
        font-size: 44.28px;
      }

      .cls-13 {
        letter-spacing: -.01em;
      }

      .cls-14 {
        letter-spacing: .16em;
      }

      .cls-15 {
        letter-spacing: .2em;
      }

      .cls-16 {
        fill: url(#linear-gradient);
      }

      .cls-17 {
        fill: #b6862d;
      }
    </style>
    <linearGradient id="linear-gradient" x1="9.12" y1="23.97" x2="66.14" y2="69.07" gradientUnits="userSpaceOnUse">
      <stop offset="0" stop-color="#b6862d"/>
      <stop offset=".23" stop-color="#b0802a"/>
      <stop offset=".53" stop-color="#a07222"/>
      <stop offset=".87" stop-color="#865a15"/>
      <stop offset="1" stop-color="#7a4f0f"/>
    </linearGradient>
  </defs>
  <g id="Layer_1-2" data-name="Layer 1">
    <g>
      <g>
        <path class="cls-16" d="M66.63,28.86v-2.68H9.01v2.83c.01,2.85,0,5.78-.02,8.62-.01,2.84-.02,5.78-.01,8.65,0,.99,0,2.01-.02,3.04-.01,1.9-.03,3.83.03,5.74-.83.29-8.99,3.25-8.99,7.36s10.42,4.21,11.21,4.21h.05c.08.18.15.36.23.53.38.9.77,1.79,1.23,2.65,4.85,8.95,14.61,15.06,20,17.9,1.37.72,2.79,1.44,3.95,1.84l.05.02c.22.08.58.23,1.05.25.04.01.1.01.14.01.39,0,1.1,0,4.85-1.92,10.41-5.35,22.99-15.02,23.75-30.69.1-1.93.13-3.98.11-6.62,0-.07.01-.14.01-.22v-14.04s10.07-2.78,10.07-5.29-10.07-2.19-10.07-2.19ZM10.89,65.84c-.52-.03-8.2-.52-8.2-3.78s5.7-5.71,6.34-5.99c.1,2.06.32,4.09.74,6.04l.03.14c.17.78.34,1.55.61,2.31.15.43.32.86.5,1.28h-.02ZM32.07,49.01c-.16-.02-.31-.04-.47-.06l.45.36,3.02,2.3.08.06.25.2-.15.12-.08.08-8.59,7.64c-3.54,3.15-8.07,4.56-12.67,5.22-.03,0-.8.13-.8.04-.59-1.05-.83-2.19-1.08-3.35-1.04-4.78-.71-10.4-.74-15.34-.02-5.72.05-11.54.03-17.27,0,0,0-.03.01-.04v-.46h52.98s0,21.88-.01,21.88c.02,2.26.01,4.51-.1,6.72-.66,13.58-11.24,22.96-22.5,28.75-.57.29-3.39,1.69-3.8,1.66-.13,0-.33-.1-.47-.15-1.09-.37-2.59-1.15-3.63-1.7-7.27-3.83-15.08-9.64-19.04-16.96-.42-.77-.76-1.59-1.16-2.37.04.09,1.49.02,1.65.02,4.36,0,8.64-1.97,12.07-4.58l4.78-2.98,4.87,6.71,12.9-26.3.14-.27-.35.14-24.03,8.3c-.73.25-1.47.49-2.19.75-.16.06-.33.11-.51.17l-1.03.36.24.09,8.86,3.54.36.14-.3-.39-2.61-3.39-.06-.08-.08-.1.39-.13.07-.03,17.43-5.94-9.05,18.82-.08.18-.2-.72c-.15-.56-.37-1.31-.56-2.04l-.02-.09-.59-2.13.23-.36,6.14-9.76.35-.55-.49.42-4.25,3.65c-.31.03-.66.05-.98.01-1.27-.16-2.51-.5-3.78-.68-.28-.04-.57-.07-.85-.11ZM72.92,31.94c-.78.83-2.68,1.8-4.19,2.49-.1.04-.19.09-.29.13-.14.07-.28.12-.4.18-.13.06-.26.11-.38.16-.62.27-1.03.44-1.03.44v-5.92s.23,0,.61.04c.06.01.13.01.2.02.22.02.46.04.73.07.09,0,.18.02.27.04.15.01.29.03.44.05,1.58.2,3.54.57,4.18,1.19.14.14.22.28.22.44,0,.2-.13.43-.36.67Z"/>
        <path class="cls-17" d="M14.59,22.12l47.15.05c.93-4.54,1.87-9.09,2.8-13.63-5.91.57-8.06,2.38-8.88,4.04-.75,1.53-.18,2.53-1.16,3.77-1.72,2.16-6.35,2.71-9.38.42-1.96-1.49-3.38-4.27-2.71-7.07.49-2.03,1.89-3.24,2.45-3.68l-6.71-6.01-7.17,5.7c2.28,2.61,2.74,5.42,1.84,7.63-1.52,3.75-6.32,4.25-8.5,4.08-.94-.07-1.99-.15-2.95-.9-1.92-1.5-1.19-3.92-2.46-5.79-.89-1.3-2.9-2.56-7.86-2.35l3.55,13.74Z"/>
      </g>
      <text class="cls-8" transform="translate(97.5 58.43)"><tspan x="0" y="0">TR</tspan><tspan class="cls-9" x="58.18" y="0">A</tspan><tspan class="cls-13" x="88.96" y="0">V</tspan><tspan x="119.82" y="0">KINGS</tspan></text>
      <text class="cls-7" transform="translate(110.21 77.61)"><tspan class="cls-10" x="0" y="0">T</tspan><tspan class="cls-11" x="9.71" y="0">OURS &amp; TR</tspan><tspan class="cls-15" x="100.97" y="0">A</tspan><tspan class="cls-6" x="112.09" y="0">V</tspan><tspan class="cls-1" x="123.24" y="0">E</tspan><tspan class="cls-2" x="134.06" y="0">L</tspan><tspan class="cls-1" x="143.89" y="0">S </tspan><tspan class="cls-12" x="160.14" y="0">P</tspan><tspan class="cls-4" x="171.38" y="0">V</tspan><tspan class="cls-3" x="182.61" y="0">T</tspan><tspan class="cls-1" x="192.06" y="0">. </tspan><tspan class="cls-14" x="203.58" y="0">L</tspan><tspan class="cls-11" x="212.58" y="0">T</tspan><tspan class="cls-5" x="222.41" y="0">D</tspan><tspan class="cls-1" x="234.86" y="0">.</tspan></text>
    </g>
  </g>
</svg>